<svg width="32" height="32" viewBox="0 0 32 32" fill="none" xmlns="http://www.w3.org/2000/svg">
<g clip-path="url(#clip0_5657_35237)">
<path opacity="0.1" fill-rule="evenodd" clip-rule="evenodd" d="M0 16C0 7.16344 7.16344 0 16 0C24.8366 0 32 7.16344 32 16C32 24.8366 24.8366 32 16 32C7.16344 32 0 24.8366 0 16Z" fill="white"/>
<path d="M20.3863 17.0339L20.8761 13.8408H17.8124V11.7696C17.8124 10.8958 18.2396 10.0436 19.6118 10.0436H21.0055V7.32512C21.0055 7.32512 19.7412 7.10938 18.533 7.10938C16.0087 7.10938 14.3604 8.63904 14.3604 11.4071V13.8408H11.5557V17.0339H14.3604V24.7534C14.9235 24.8418 15.4996 24.8872 16.0864 24.8872C16.6732 24.8872 17.2493 24.8418 17.8124 24.7534V17.0339H20.3863Z" fill="white"/>
</g>
<defs>
<clipPath id="clip0_5657_35237">
<rect width="32" height="32" fill="white"/>
</clipPath>
</defs>
</svg>
