<svg width="32" height="32" viewBox="0 0 32 32" fill="none" xmlns="http://www.w3.org/2000/svg">
<path opacity="0.1" fill-rule="evenodd" clip-rule="evenodd" d="M0 16C0 7.16344 7.16344 0 16 0C24.8366 0 32 7.16344 32 16C32 24.8366 24.8366 32 16 32C7.16344 32 0 24.8366 0 16Z" fill="white"/>
<path fill-rule="evenodd" clip-rule="evenodd" d="M15.6455 7.10938C13.3279 7.10938 13.0371 7.11951 12.1268 7.16093C11.2184 7.20253 10.5983 7.34636 10.0557 7.55738C9.49446 7.77534 9.01837 8.0669 8.54405 8.54139C8.06938 9.01571 7.77782 9.4918 7.55916 10.0529C7.3476 10.5956 7.2036 11.2159 7.16271 12.124C7.12199 13.0342 7.11133 13.3253 7.11133 15.6428C7.11133 17.9603 7.12164 18.2503 7.16288 19.1605C7.20466 20.069 7.34849 20.6891 7.55933 21.2317C7.77747 21.7929 8.06903 22.269 8.54352 22.7433C9.01766 23.218 9.49375 23.5103 10.0546 23.7282C10.5976 23.9392 11.2179 24.0831 12.1261 24.1247C13.0364 24.1661 13.327 24.1762 15.6444 24.1762C17.9621 24.1762 18.2521 24.1661 19.1623 24.1247C20.0708 24.0831 20.6916 23.9392 21.2345 23.7282C21.7956 23.5103 22.271 23.218 22.7451 22.7433C23.2198 22.269 23.5113 21.7929 23.73 21.2318C23.9398 20.6891 24.0838 20.0688 24.1264 19.1607C24.1673 18.2505 24.178 17.9603 24.178 15.6428C24.178 13.3253 24.1673 13.0344 24.1264 12.1242C24.0838 11.2157 23.9398 10.5956 23.73 10.0531C23.5113 9.4918 23.2198 9.01571 22.7451 8.54139C22.2704 8.06672 21.7957 7.77516 21.234 7.55738C20.69 7.34636 20.0695 7.20253 19.1611 7.16093C18.2508 7.11951 17.961 7.10938 15.6428 7.10938H15.6455ZM14.8799 8.64714C15.1071 8.64679 15.3606 8.64714 15.6454 8.64714C17.9238 8.64714 18.1939 8.65532 19.0936 8.69621C19.9256 8.73426 20.3772 8.87328 20.678 8.99008C21.0762 9.14475 21.3602 9.32964 21.6586 9.62831C21.9573 9.92698 22.1422 10.2114 22.2972 10.6097C22.414 10.9101 22.5532 11.3617 22.5911 12.1937C22.632 13.0932 22.6409 13.3635 22.6409 15.6408C22.6409 17.9182 22.632 18.1884 22.5911 19.088C22.5531 19.92 22.414 20.3715 22.2972 20.672C22.1426 21.0702 21.9573 21.3538 21.6586 21.6523C21.36 21.9509 21.0764 22.1358 20.678 22.2905C20.3776 22.4078 19.9256 22.5465 19.0936 22.5845C18.1941 22.6254 17.9238 22.6343 15.6454 22.6343C13.3668 22.6343 13.0968 22.6254 12.1972 22.5845C11.3652 22.5461 10.9136 22.4071 10.6127 22.2903C10.2144 22.1356 9.92999 21.9508 9.63132 21.6521C9.33265 21.3534 9.14776 21.0697 8.99273 20.6713C8.87593 20.3708 8.73673 19.9193 8.69886 19.0873C8.65797 18.1877 8.6498 17.9175 8.6498 15.6387C8.6498 13.3599 8.65797 13.0911 8.69886 12.1915C8.73691 11.3595 8.87593 10.908 8.99273 10.6072C9.1474 10.2089 9.33265 9.92449 9.63132 9.62582C9.92999 9.32715 10.2144 9.14226 10.6127 8.98724C10.9135 8.8699 11.3652 8.73123 12.1972 8.69301C12.9844 8.65746 13.2895 8.64679 14.8799 8.64501V8.64714ZM20.2005 10.0641C19.6352 10.0641 19.1765 10.5222 19.1765 11.0877C19.1765 11.653 19.6352 12.1117 20.2005 12.1117C20.7658 12.1117 21.2245 11.653 21.2245 11.0877C21.2245 10.5224 20.7658 10.0641 20.2005 10.0641ZM15.6455 11.2605C13.2254 11.2605 11.2632 13.2227 11.2632 15.6428C11.2632 18.0629 13.2254 20.0242 15.6455 20.0242C18.0656 20.0242 20.027 18.0629 20.027 15.6428C20.027 13.2227 18.0656 11.2605 15.6455 11.2605ZM15.6454 12.7983C17.2163 12.7983 18.4899 14.0717 18.4899 15.6428C18.4899 17.2136 17.2163 18.4872 15.6454 18.4872C14.0744 18.4872 12.801 17.2136 12.801 15.6428C12.801 14.0717 14.0744 12.7983 15.6454 12.7983Z" fill="white"/>
</svg>
