<svg width="32" height="32" viewBox="0 0 32 32" fill="none" xmlns="http://www.w3.org/2000/svg">
<g clip-path="url(#clip0_5657_35240)">
<path opacity="0.1" fill-rule="evenodd" clip-rule="evenodd" d="M0 16C0 7.16344 7.16344 0 16 0C24.8366 0 32 7.16344 32 16C32 24.8366 24.8366 32 16 32C7.16344 32 0 24.8366 0 16Z" fill="white"/>
<path d="M11.1905 9.8818C11.167 8.8136 10.4031 8 9.16268 8C7.92227 8 7.11133 8.8136 7.11133 9.8818C7.11133 10.9279 7.8983 11.7649 9.11562 11.7649H9.13879C10.4031 11.7649 11.1905 10.9279 11.1905 9.8818Z" fill="white"/>
<path d="M10.9517 13.252H7.32574V24.1464H10.9517V13.252Z" fill="white"/>
<path d="M19.8534 12.9961C22.2395 12.9961 24.0283 14.5535 24.0283 17.8998L24.0281 24.1464H20.4023V18.3178C20.4023 16.8538 19.8776 15.8548 18.565 15.8548C17.5633 15.8548 16.9666 16.5283 16.7045 17.1788C16.6087 17.4119 16.5851 17.7367 16.5851 18.0623V24.1467H12.9587C12.9587 24.1467 13.0065 14.2745 12.9587 13.2522H16.5851V14.7953C17.0664 14.0535 17.9283 12.9961 19.8534 12.9961Z" fill="white"/>
</g>
<defs>
<clipPath id="clip0_5657_35240">
<rect width="32" height="32" fill="white"/>
</clipPath>
</defs>
</svg>
