<svg width="32" height="32" viewBox="0 0 32 32" fill="none" xmlns="http://www.w3.org/2000/svg">
<path opacity="0.1" fill-rule="evenodd" clip-rule="evenodd" d="M0 16C0 7.16344 7.16344 0 16 0C24.8366 0 32 7.16344 32 16C32 24.8366 24.8366 32 16 32C7.16344 32 0 24.8366 0 16Z" fill="white"/>
<path fill-rule="evenodd" clip-rule="evenodd" d="M8.68706 8.95452C7.24668 9.02588 6.08966 10.1537 5.99618 11.5928C5.90662 12.9716 5.81836 14.6681 5.81836 15.9993C5.81836 17.3304 5.90662 19.027 5.99618 20.4058C6.08966 21.8449 7.24669 22.9727 8.68706 23.0441C10.7728 23.1474 13.754 23.272 16.0002 23.272C18.2464 23.272 21.2275 23.1474 23.3133 23.0441C24.7537 22.9727 25.9107 21.8449 26.0042 20.4058C26.0937 19.027 26.182 17.3304 26.182 15.9993C26.182 14.6681 26.0937 12.9716 26.0042 11.5928C25.9107 10.1537 24.7537 9.02588 23.3133 8.95452C21.2275 8.85119 18.2464 8.72656 16.0002 8.72656C13.754 8.72656 10.7728 8.85119 8.68706 8.95452ZM19.6364 15.9993L13.8182 18.9084V13.0902L19.6364 15.9993Z" fill="white"/>
</svg>
