<svg width="20" height="20" viewBox="0 0 20 20" fill="none" xmlns="http://www.w3.org/2000/svg">
  <path
    d="M9.21359 6.98252L4.4961 11.5077C4.39182 11.6069 4.30905 11.7249 4.25256 11.855C4.19607 11.985 4.16699 12.1245 4.16699 12.2654C4.16699 12.4063 4.19607 12.5458 4.25256 12.6758C4.30905 12.8059 4.39182 12.9239 4.4961 13.0231C4.70456 13.2219 4.98656 13.3335 5.28049 13.3335C5.57443 13.3335 5.85643 13.2219 6.06489 13.0231L10.0035 9.24509L13.9422 13.0231C14.1507 13.2219 14.4327 13.3335 14.7266 13.3335C15.0205 13.3335 15.3025 13.2219 15.511 13.0231C15.6141 12.9234 15.6957 12.8052 15.7511 12.6751C15.8064 12.5451 15.8345 12.4059 15.8336 12.2654C15.8345 12.1249 15.8064 11.9857 15.7511 11.8557C15.6957 11.7256 15.6141 11.6074 15.511 11.5077L10.7935 6.98252C10.6901 6.88249 10.567 6.80309 10.4314 6.74891C10.2958 6.69473 10.1504 6.66683 10.0035 6.66683C9.85666 6.66683 9.71124 6.69473 9.57566 6.74891C9.44007 6.80309 9.31702 6.88249 9.21359 6.98252Z"/>
</svg>
