<svg width="20" height="20" viewBox="0 0 20 20" fill="none" xmlns="http://www.w3.org/2000/svg">
<g clip-path="url(#clip0_5674_37305)">
<path fill-rule="evenodd" clip-rule="evenodd" d="M4.2988 7.62238C4.34048 7.58359 4.38999 7.55281 4.4445 7.53181C4.49901 7.51081 4.55744 7.5 4.61646 7.5C4.67547 7.5 4.73391 7.51081 4.78842 7.53181C4.84293 7.55281 4.89244 7.58359 4.93411 7.62238L10.0004 12.327L15.0668 7.62238C15.1085 7.58365 15.158 7.55293 15.2125 7.53197C15.267 7.51101 15.3254 7.50022 15.3844 7.50022C15.4434 7.50022 15.5018 7.51101 15.5563 7.53197C15.6108 7.55293 15.6604 7.58365 15.7021 7.62238C15.7438 7.66111 15.7769 7.70709 15.7995 7.75769C15.822 7.8083 15.8337 7.86253 15.8337 7.9173C15.8337 7.97208 15.822 8.02631 15.7995 8.07692C15.7769 8.12752 15.7438 8.1735 15.7021 8.21223L10.3181 13.211C10.2764 13.2497 10.2269 13.2805 10.1724 13.3015C10.1179 13.3225 10.0595 13.3333 10.0004 13.3333C9.94143 13.3333 9.88299 13.3225 9.82848 13.3015C9.77398 13.2805 9.72447 13.2497 9.68279 13.211L4.2988 8.21223C4.25702 8.17353 4.22387 8.12757 4.20125 8.07696C4.17863 8.02635 4.16699 7.9721 4.16699 7.9173C4.16699 7.86251 4.17863 7.80826 4.20125 7.75765C4.22387 7.70704 4.25702 7.66107 4.2988 7.62238V7.62238Z" fill="#1E212B"/>
</g>
<defs>
<clipPath id="clip0_5674_37305">
<rect width="20" height="20" fill="white"/>
</clipPath>
</defs>
</svg>
