<svg width="24" height="24" viewBox="0 0 24 24" fill="none" xmlns="http://www.w3.org/2000/svg">
<path d="M15.7441 14.3432C16.7125 13.0218 17.1462 11.3834 16.9585 9.75589C16.7708 8.12838 15.9755 6.63176 14.7318 5.56544C13.488 4.49912 11.8875 3.94174 10.2504 4.00482C8.6133 4.0679 7.0604 4.74679 5.90236 5.90565C4.74433 7.06452 4.06656 8.6179 4.00465 10.255C3.94274 11.8922 4.50126 13.4923 5.56847 14.7353C6.63568 15.9783 8.13287 16.7725 9.76051 16.9591C11.3882 17.1456 13.0262 16.7107 14.347 15.7414H14.346C14.376 15.7814 14.408 15.8194 14.444 15.8564L18.2944 19.7068C18.4819 19.8944 18.7363 19.9999 19.0016 20C19.2669 20.0001 19.5214 19.8948 19.709 19.7073C19.8967 19.5197 20.0022 19.2653 20.0023 19C20.0023 18.7348 19.897 18.4803 19.7095 18.2926L15.8591 14.4422C15.8234 14.406 15.7849 14.3726 15.7441 14.3422V14.3432ZM16.0021 10.4988C16.0021 11.2212 15.8599 11.9364 15.5834 12.6038C15.307 13.2712 14.9018 13.8775 14.3911 14.3883C13.8803 14.8991 13.2739 15.3043 12.6065 15.5807C11.9392 15.8571 11.2239 15.9994 10.5016 15.9994C9.77922 15.9994 9.06395 15.8571 8.39659 15.5807C7.72923 15.3043 7.12285 14.8991 6.61208 14.3883C6.1013 13.8775 5.69614 13.2712 5.41971 12.6038C5.14328 11.9364 5.001 11.2212 5.001 10.4988C5.001 9.03998 5.58052 7.64089 6.61208 6.60933C7.64364 5.57777 9.04273 4.99825 10.5016 4.99825C11.9604 4.99825 13.3595 5.57777 14.3911 6.60933C15.4226 7.64089 16.0021 9.03998 16.0021 10.4988Z" fill="#696969"/>
</svg>
