<svg width="14" height="18" viewBox="0 0 14 18" fill="none" xmlns="http://www.w3.org/2000/svg">
<path d="M7 4.625V0.25H2.625C2.12772 0.25 1.65081 0.447544 1.29917 0.799175C0.947544 1.15081 0.75 1.62772 0.75 2.125V15.875C0.75 16.3723 0.947544 16.8492 1.29917 17.2008C1.65081 17.5525 2.12772 17.75 2.625 17.75H11.375C11.8723 17.75 12.3492 17.5525 12.7008 17.2008C13.0525 16.8492 13.25 16.3723 13.25 15.875V6.5H8.875C8.37772 6.5 7.90081 6.30246 7.54917 5.95083C7.19754 5.59919 7 5.12228 7 4.625ZM8.25 4.625V0.5625L12.9375 5.25H8.875C8.70924 5.25 8.55027 5.18415 8.43306 5.06694C8.31585 4.94973 8.25 4.79076 8.25 4.625ZM3.875 9H10.125C10.2908 9 10.4497 9.06585 10.5669 9.18306C10.6842 9.30027 10.75 9.45924 10.75 9.625C10.75 9.79076 10.6842 9.94973 10.5669 10.0669C10.4497 10.1842 10.2908 10.25 10.125 10.25H3.875C3.70924 10.25 3.55027 10.1842 3.43306 10.0669C3.31585 9.94973 3.25 9.79076 3.25 9.625C3.25 9.45924 3.31585 9.30027 3.43306 9.18306C3.55027 9.06585 3.70924 9 3.875 9ZM3.25 12.125C3.25 11.9592 3.31585 11.8003 3.43306 11.6831C3.55027 11.5658 3.70924 11.5 3.875 11.5H10.125C10.2908 11.5 10.4497 11.5658 10.5669 11.6831C10.6842 11.8003 10.75 11.9592 10.75 12.125C10.75 12.2908 10.6842 12.4497 10.5669 12.5669C10.4497 12.6842 10.2908 12.75 10.125 12.75H3.875C3.70924 12.75 3.55027 12.6842 3.43306 12.5669C3.31585 12.4497 3.25 12.2908 3.25 12.125ZM3.875 14H10.125C10.2908 14 10.4497 14.0658 10.5669 14.1831C10.6842 14.3003 10.75 14.4592 10.75 14.625C10.75 14.7908 10.6842 14.9497 10.5669 15.0669C10.4497 15.1842 10.2908 15.25 10.125 15.25H3.875C3.70924 15.25 3.55027 15.1842 3.43306 15.0669C3.31585 14.9497 3.25 14.7908 3.25 14.625C3.25 14.4592 3.31585 14.3003 3.43306 14.1831C3.55027 14.0658 3.70924 14 3.875 14Z" fill="#1666BC"/>
</svg>
