<svg width="24" height="24" viewBox="0 0 24 24" fill="none" xmlns="http://www.w3.org/2000/svg">
<path d="M6 0C5.175 0 4.5 0.675 4.5 1.5V22.5C4.5 23.325 5.175 24 6 24H21C21.825 24 22.5 23.325 22.5 22.5V6L16.5 0H6Z" fill="#E2E5E7"/>
<path d="M18 6H22.5L16.5 0V4.5C16.5 5.325 17.175 6 18 6Z" fill="#B0B7BD"/>
<path d="M22.5 10.5L18 6H22.5V10.5Z" fill="#CAD1D8"/>
<path d="M19.5 19.5C19.5 19.9125 19.1625 20.25 18.75 20.25H2.25C1.8375 20.25 1.5 19.9125 1.5 19.5V12C1.5 11.5875 1.8375 11.25 2.25 11.25H18.75C19.1625 11.25 19.5 11.5875 19.5 12V19.5Z" fill="#F15642"/>
<path d="M4.76929 14.2109C4.76929 14.0129 4.92529 13.7969 5.17654 13.7969H6.56179C7.34179 13.7969 8.04379 14.3189 8.04379 15.3194C8.04379 16.2674 7.34179 16.7954 6.56179 16.7954H5.56054V17.5874C5.56054 17.8514 5.39254 18.0006 5.17654 18.0006C4.97854 18.0006 4.76929 17.8514 4.76929 17.5874V14.2109ZM5.56054 14.5521V16.0461H6.56179C6.96379 16.0461 7.28179 15.6914 7.28179 15.3194C7.28179 14.9001 6.96379 14.5521 6.56179 14.5521H5.56054Z" fill="white"/>
<path d="M9.21844 18.0003C9.02044 18.0003 8.80444 17.8923 8.80444 17.6291V14.2226C8.80444 14.0073 9.02044 13.8506 9.21844 13.8506H10.5917C13.3322 13.8506 13.2722 18.0003 10.6457 18.0003H9.21844ZM9.59644 14.5826V17.2691H10.5917C12.2109 17.2691 12.2829 14.5826 10.5917 14.5826H9.59644Z" fill="white"/>
<path d="M14.244 14.6304V15.5836H15.7732C15.9892 15.5836 16.2052 15.7996 16.2052 16.0089C16.2052 16.2069 15.9892 16.3689 15.7732 16.3689H14.244V17.6281C14.244 17.8381 14.0947 17.9994 13.8847 17.9994C13.6207 17.9994 13.4595 17.8381 13.4595 17.6281V14.2216C13.4595 14.0064 13.6215 13.8496 13.8847 13.8496H15.99C16.254 13.8496 16.41 14.0064 16.41 14.2216C16.41 14.4136 16.254 14.6296 15.99 14.6296H14.244V14.6304Z" fill="white"/>
<path d="M18.75 20.25H4.5V21H18.75C19.1625 21 19.5 20.6625 19.5 20.25V19.5C19.5 19.9125 19.1625 20.25 18.75 20.25Z" fill="#CAD1D8"/>
</svg>
