<svg width="24" height="24" viewBox="0 0 24 24" fill="none" xmlns="http://www.w3.org/2000/svg">
<path d="M6 0C5.175 0 4.5 0.675 4.5 1.5V22.5C4.5 23.325 5.175 24 6 24H21C21.825 24 22.5 23.325 22.5 22.5V6L16.5 0H6Z" fill="#E2E5E7"/>
<path d="M18 6H22.5L16.5 0V4.5C16.5 5.325 17.175 6 18 6Z" fill="#B0B7BD"/>
<path d="M22.5 10.5L18 6H22.5V10.5Z" fill="#CAD1D8"/>
<path d="M19.5 19.5C19.5 19.9125 19.1625 20.25 18.75 20.25H2.25C1.8375 20.25 1.5 19.9125 1.5 19.5V12C1.5 11.5875 1.8375 11.25 2.25 11.25H18.75C19.1625 11.25 19.5 11.5875 19.5 12V19.5Z" fill="#84BD5A"/>
<path d="M6.76567 15.2912L7.80892 13.9839C8.12092 13.5759 8.72692 14.0972 8.38492 14.4872C8.02567 14.9132 7.64767 15.3752 7.28767 15.8484L8.51092 17.3717C8.84092 17.8217 8.18167 18.2529 7.85767 17.8089L6.75367 16.3937L5.66842 17.8397C5.36242 18.2769 4.68442 17.7857 5.02642 17.3777L6.23167 15.8484C5.85367 15.3744 5.48767 14.9132 5.12242 14.4872C4.74517 14.0372 5.44642 13.5759 5.72242 13.9967L6.76567 15.2912Z" fill="white"/>
<path d="M9.25122 14.2107C9.25122 14.0127 9.41922 13.8447 9.62922 13.8447C9.82122 13.8447 9.98322 14.0135 9.98322 14.2107V17.2152H11.6145C12.2017 17.2152 12.2145 18.0005 11.6145 18.0005H9.62997C9.41997 18.0005 9.25197 17.8512 9.25197 17.6352V14.2107H9.25122Z" fill="white"/>
<path d="M12.7515 14.7507C12.8895 13.5867 14.646 13.3774 15.474 14.0134C15.882 14.3427 15.45 14.8647 15.09 14.6007C14.646 14.3194 13.6388 14.1874 13.5128 14.8099C13.3508 15.7939 15.9593 15.2307 15.9173 16.8259C15.8753 18.3492 13.6688 18.3844 12.8408 17.7012C12.642 17.5392 12.6488 17.2759 12.7568 17.1132C12.9128 16.9579 13.086 16.9039 13.2908 17.0719C13.782 17.4072 15.048 17.6592 15.1373 16.8072C15.06 15.9207 12.5655 16.4539 12.7515 14.7507Z" fill="white"/>
<path d="M18.75 20.25H4.5V21H18.75C19.1625 21 19.5 20.6625 19.5 20.25V19.5C19.5 19.9125 19.1625 20.25 18.75 20.25Z" fill="#CAD1D8"/>
</svg>
