<svg width="16" height="17" viewBox="0 0 16 17" fill="none" xmlns="http://www.w3.org/2000/svg">
<path d="M14.6668 8.50016C14.6668 10.2683 13.9645 11.964 12.7142 13.2142C11.464 14.4645 9.76827 15.1668 8.00016 15.1668C6.23205 15.1668 4.53636 14.4645 3.28612 13.2142C2.03588 11.964 1.3335 10.2683 1.3335 8.50016C1.3335 6.73205 2.03588 5.03636 3.28612 3.78612C4.53636 2.53588 6.23205 1.8335 8.00016 1.8335C9.76827 1.8335 11.464 2.53588 12.7142 3.78612C13.9645 5.03636 14.6668 6.73205 14.6668 8.50016ZM5.79516 5.70516C5.71692 5.62692 5.61081 5.58297 5.50016 5.58297C5.38952 5.58297 5.2834 5.62692 5.20516 5.70516C5.12692 5.7834 5.08297 5.88952 5.08297 6.00016C5.08297 6.11081 5.12692 6.21692 5.20516 6.29516L7.411 8.50016L5.20516 10.7052C5.16642 10.7439 5.13569 10.7899 5.11473 10.8405C5.09376 10.8911 5.08297 10.9454 5.08297 11.0002C5.08297 11.0549 5.09376 11.1092 5.11473 11.1598C5.13569 11.2104 5.16642 11.2564 5.20516 11.2952C5.2834 11.3734 5.38952 11.4174 5.50016 11.4174C5.55495 11.4174 5.6092 11.4066 5.65982 11.3856C5.71043 11.3646 5.75642 11.3339 5.79516 11.2952L8.00016 9.08933L10.2052 11.2952C10.2439 11.3339 10.2899 11.3646 10.3405 11.3856C10.3911 11.4066 10.4454 11.4174 10.5002 11.4174C10.5549 11.4174 10.6092 11.4066 10.6598 11.3856C10.7104 11.3646 10.7564 11.3339 10.7952 11.2952C10.8339 11.2564 10.8646 11.2104 10.8856 11.1598C10.9066 11.1092 10.9174 11.0549 10.9174 11.0002C10.9174 10.9454 10.9066 10.8911 10.8856 10.8405C10.8646 10.7899 10.8339 10.7439 10.7952 10.7052L8.58933 8.50016L10.7952 6.29516C10.8339 6.25642 10.8646 6.21043 10.8856 6.15982C10.9066 6.1092 10.9174 6.05495 10.9174 6.00016C10.9174 5.94538 10.9066 5.89113 10.8856 5.84051C10.8646 5.78989 10.8339 5.7439 10.7952 5.70516C10.7564 5.66642 10.7104 5.63569 10.6598 5.61473C10.6092 5.59376 10.5549 5.58297 10.5002 5.58297C10.4454 5.58297 10.3911 5.59376 10.3405 5.61473C10.2899 5.63569 10.2439 5.66642 10.2052 5.70516L8.00016 7.911L5.79516 5.70516Z" fill="#696969"/>
</svg>
