<svg width="20" height="20" viewBox="0 0 20 20" fill="none" xmlns="http://www.w3.org/2000/svg">
<path d="M13.1198 11.9533C13.9268 10.8521 14.2882 9.48682 14.1318 8.13056C13.9754 6.7743 13.3126 5.52712 12.2761 4.63852C11.2397 3.74992 9.90589 3.28544 8.54166 3.338C7.17742 3.39057 5.88334 3.95631 4.91831 4.92203C3.95328 5.88775 3.38847 7.18223 3.33688 8.54651C3.28529 9.91078 3.75072 11.2442 4.64006 12.2801C5.5294 13.3159 6.77706 13.9778 8.13343 14.1332C9.4898 14.2887 10.8548 13.9262 11.9555 13.1185H11.9546C11.9796 13.1518 12.0063 13.1835 12.0363 13.2143L15.245 16.423C15.4013 16.5793 15.6133 16.6672 15.8343 16.6673C16.0554 16.6674 16.2675 16.5796 16.4239 16.4234C16.5802 16.2671 16.6681 16.0551 16.6682 15.834C16.6683 15.6129 16.5805 15.4009 16.4243 15.2445L13.2156 12.0358C13.1858 12.0057 13.1538 11.9778 13.1198 11.9525V11.9533ZM13.3348 8.74967C13.3348 9.35162 13.2162 9.94768 12.9859 10.5038C12.7555 11.0599 12.4179 11.5653 11.9922 11.9909C11.5666 12.4166 11.0613 12.7542 10.5051 12.9846C9.94899 13.2149 9.35293 13.3335 8.75098 13.3335C8.14903 13.3335 7.55297 13.2149 6.99683 12.9846C6.4407 12.7542 5.93539 12.4166 5.50974 11.9909C5.0841 11.5653 4.74645 11.0599 4.5161 10.5038C4.28574 9.94768 4.16718 9.35162 4.16718 8.74967C4.16718 7.53397 4.65011 6.36806 5.50974 5.50843C6.36937 4.6488 7.53528 4.16586 8.75098 4.16586C9.96668 4.16586 11.1326 4.6488 11.9922 5.50843C12.8519 6.36806 13.3348 7.53397 13.3348 8.74967Z" fill="#696969"/>
</svg>
