<svg width="112" height="32" viewBox="0 0 112 32" fill="none" xmlns="http://www.w3.org/2000/svg">
<path fill-rule="evenodd" clip-rule="evenodd" d="M42.4395 0.690918V22.4574L25.4199 31.3165L42.4395 0.690918Z" fill="#3CBD0D"/>
<path fill-rule="evenodd" clip-rule="evenodd" d="M42.4414 0.690918L59.4607 31.3163L42.4414 22.4574V0.690918Z" fill="#9ED110"/>
<path fill-rule="evenodd" clip-rule="evenodd" d="M42.4396 22.4575L59.459 31.3165H25.4199L42.4396 22.4575Z" fill="#038726"/>
<path fill-rule="evenodd" clip-rule="evenodd" d="M62.369 8.78213C62.369 2.46845 67.8909 0 73.2221 0C76.995 0 80.444 0.899618 83.7877 2.70622L81.3387 7.1132C79.0697 6.06319 76.4405 5.09244 73.9431 5.12631C71.8121 5.15536 67.4992 5.63562 67.4992 8.6946C67.4992 14.7114 85.085 11.9642 85.085 22.9083C85.085 30.039 79.416 31.9966 73.5163 31.9966C69.7537 31.9966 65.5007 30.855 62.0215 29.3954L64.704 24.569C65.4147 24.8641 66.1315 25.1271 66.8629 25.3646C68.6701 25.951 71.1552 26.6004 73.0538 26.6004C75.1158 26.6004 79.8646 26.254 79.8651 23.2144C79.8658 16.7867 62.369 19.6851 62.369 8.78213Z" fill="#45464F"/>
<path fill-rule="evenodd" clip-rule="evenodd" d="M5.50422 13.5653H10.2675L17.4203 0.694289H23.2733L14.7655 16.0036L23.2733 31.3126H17.4203L10.2677 18.4421H5.50422V31.3165H0V0.690918H5.50422V13.5653Z" fill="#45464F"/>
<path fill-rule="evenodd" clip-rule="evenodd" d="M91.6631 31.317H111.999V26.4379H97.1669V18.4437H110.73V13.5647H97.1669V5.57008H111.999V0.690918H91.6631C91.6631 10.8997 91.6631 21.1082 91.6631 31.317Z" fill="#45464F"/>
</svg>
