<svg width="84" height="24" viewBox="0 0 84 24" fill="none" xmlns="http://www.w3.org/2000/svg">
<g clip-path="url(#clip0_30_4522)">
<path fill-rule="evenodd" clip-rule="evenodd" d="M31.8291 0.518311V16.8432L19.0645 23.4875L31.8291 0.518311Z" fill="#01955D"/>
<path fill-rule="evenodd" clip-rule="evenodd" d="M31.8301 0.518311L44.5946 23.4873L31.8301 16.8432V0.518311Z" fill="#00CE01"/>
<path fill-rule="evenodd" clip-rule="evenodd" d="M31.8294 16.8433L44.594 23.4875H19.0647L31.8294 16.8433Z" fill="#006E6D"/>
<path fill-rule="evenodd" clip-rule="evenodd" d="M46.7763 6.58647C46.7763 1.85121 50.9177 -0.00012207 54.9161 -0.00012207C57.7457 -0.00012207 60.3325 0.674591 62.8403 2.02954L61.0036 5.33478C59.3018 4.54727 57.3299 3.8192 55.4568 3.84461C53.8586 3.8664 50.6239 4.2266 50.6239 6.52082C50.6239 11.0334 63.8133 8.97304 63.8133 17.1811C63.8133 22.5291 59.5615 23.9973 55.1368 23.9973C52.3148 23.9973 49.125 23.1411 46.5156 22.0464L48.5275 18.4266C49.0606 18.648 49.5982 18.8452 50.1467 19.0233C51.5021 19.4631 53.3659 19.9502 54.7899 19.9502C56.3363 19.9502 59.8979 19.6904 59.8984 17.4107C59.8989 12.5899 46.7763 14.7637 46.7763 6.58647Z" fill="#2A2E2E"/>
<path fill-rule="evenodd" clip-rule="evenodd" d="M4.12816 10.1741H7.70062L13.0653 0.520839H17.4549L11.0741 12.0028L17.4549 23.4846H13.0653L7.70076 13.8317H4.12816V23.4875H0V0.518311H4.12816V10.1741Z" fill="#2A2E2E"/>
<path fill-rule="evenodd" clip-rule="evenodd" d="M68.748 23.4879H83.9998V19.8286H72.8759V13.8329H83.0485V10.1736H72.8759V4.17768H83.9998V0.518311H68.748C68.748 8.17493 68.748 15.8313 68.748 23.4879Z" fill="#2A2E2E"/>
</g>
<defs>
<clipPath id="clip0_30_4522">
<rect width="84" height="24" fill="white"/>
</clipPath>
</defs>
</svg>
