<svg width="24" height="24" viewBox="0 0 24 24" xmlns="http://www.w3.org/2000/svg">
  <g clip-path="url(#clip0_67_4171)">
    <path fill-rule="evenodd" clip-rule="evenodd"
          d="M17.25 2.99998C16.9545 2.99998 16.6619 3.05817 16.389 3.17125C16.116 3.28432 15.8679 3.45005 15.659 3.65899C15.4501 3.86792 15.2843 4.11595 15.1713 4.38894C15.0582 4.66192 15 4.9545 15 5.24998C15 5.54545 15.0582 5.83803 15.1713 6.11101C15.2843 6.384 15.4501 6.63203 15.659 6.84097C15.8679 7.0499 16.116 7.21563 16.389 7.3287C16.6619 7.44178 16.9545 7.49998 17.25 7.49998C17.8467 7.49998 18.419 7.26292 18.841 6.84097C19.2629 6.41901 19.5 5.84671 19.5 5.24998C19.5 4.65324 19.2629 4.08094 18.841 3.65899C18.419 3.23703 17.8467 2.99998 17.25 2.99998ZM13.575 4.49998C13.7471 3.65226 14.207 2.89012 14.8768 2.34269C15.5466 1.79526 16.385 1.49622 17.25 1.49622C18.115 1.49622 18.9534 1.79526 19.6232 2.34269C20.293 2.89012 20.7529 3.65226 20.925 4.49998H24V5.99998H20.925C20.7529 6.84769 20.293 7.60983 19.6232 8.15726C18.9534 8.70469 18.115 9.00373 17.25 9.00373C16.385 9.00373 15.5466 8.70469 14.8768 8.15726C14.207 7.60983 13.7471 6.84769 13.575 5.99998H0V4.49998H13.575ZM6.75 10.5C6.15326 10.5 5.58097 10.737 5.15901 11.159C4.73705 11.5809 4.5 12.1532 4.5 12.75C4.5 13.3467 4.73705 13.919 5.15901 14.341C5.58097 14.7629 6.15326 15 6.75 15C7.34674 15 7.91903 14.7629 8.34099 14.341C8.76295 13.919 9 13.3467 9 12.75C9 12.1532 8.76295 11.5809 8.34099 11.159C7.91903 10.737 7.34674 10.5 6.75 10.5ZM3.075 12C3.24714 11.1523 3.70705 10.3901 4.37681 9.84269C5.04657 9.29526 5.88498 8.99622 6.75 8.99622C7.61502 8.99622 8.45343 9.29526 9.12319 9.84269C9.79295 10.3901 10.2529 11.1523 10.425 12H24V13.5H10.425C10.2529 14.3477 9.79295 15.1098 9.12319 15.6573C8.45343 16.2047 7.61502 16.5037 6.75 16.5037C5.88498 16.5037 5.04657 16.2047 4.37681 15.6573C3.70705 15.1098 3.24714 14.3477 3.075 13.5H0V12H3.075ZM17.25 18C16.6533 18 16.081 18.237 15.659 18.659C15.2371 19.0809 15 19.6532 15 20.25C15 20.8467 15.2371 21.419 15.659 21.841C16.081 22.2629 16.6533 22.5 17.25 22.5C17.8467 22.5 18.419 22.2629 18.841 21.841C19.2629 21.419 19.5 20.8467 19.5 20.25C19.5 19.6532 19.2629 19.0809 18.841 18.659C18.419 18.237 17.8467 18 17.25 18ZM13.575 19.5C13.7471 18.6523 14.207 17.8901 14.8768 17.3427C15.5466 16.7953 16.385 16.4962 17.25 16.4962C18.115 16.4962 18.9534 16.7953 19.6232 17.3427C20.293 17.8901 20.7529 18.6523 20.925 19.5H24V21H20.925C20.7529 21.8477 20.293 22.6098 19.6232 23.1573C18.9534 23.7047 18.115 24.0037 17.25 24.0037C16.385 24.0037 15.5466 23.7047 14.8768 23.1573C14.207 22.6098 13.7471 21.8477 13.575 21H0V19.5H13.575Z"
    />
  </g>
  <defs>
    <clipPath id="clip0_67_4171">
      <rect width="24" height="24"/>
    </clipPath>
  </defs>
</svg>
