<svg width="104" height="50" viewBox="0 0 104 50" fill="none" xmlns="http://www.w3.org/2000/svg">
<g clip-path="url(#clip0_3467_32499)">
<path d="M26.3608 36.776C27.5266 36.5888 28.6427 36.1667 29.6423 35.5351C30.6762 34.8794 31.6009 34.0639 32.3822 33.1187C33.2268 32.099 33.9463 30.9809 34.5252 29.7884C35.1573 28.4947 35.6611 27.1414 36.0291 25.7483C36.5859 25.2611 37.0982 24.7247 37.5598 24.1457C37.9963 23.6007 38.3771 23.0129 38.6963 22.3911C39.0029 21.7949 39.2411 21.1656 39.4062 20.5153C39.7346 19.2214 39.7346 17.8652 39.4062 16.5713C39.2411 15.921 39.0029 15.2917 38.6963 14.6955C38.377 14.0738 37.9963 13.4859 37.5598 12.9409C37.0979 12.3621 36.5856 11.8258 36.0291 11.3383C35.6611 9.94515 35.1574 8.59188 34.5252 7.29815C33.9451 6.10548 33.2243 4.98735 32.3784 3.96789C31.5981 3.02356 30.6748 2.20875 29.6423 1.55341C28.6427 0.921894 27.5266 0.499824 26.3608 0.3125C27.6926 0.517009 29.0066 0.825115 30.2909 1.23404C31.4939 1.61664 32.6653 2.0933 33.7943 2.65965C34.8626 3.19488 35.8864 3.81574 36.8557 4.5162C37.7805 5.18585 38.6483 5.93169 39.4502 6.74599C40.2675 7.57317 41.0067 8.47486 41.6582 9.43944C42.2697 10.348 42.7914 11.3146 43.2157 12.3253C44.0414 14.2918 44.4668 16.4048 44.4668 18.5394C44.4668 20.6741 44.0414 22.787 43.2157 24.7536C42.7912 25.7643 42.2696 26.7308 41.6582 27.6395C41.0069 28.6042 40.2677 29.5059 39.4502 30.3329C38.6484 31.1467 37.7806 31.8919 36.8557 32.5608C35.8864 33.2613 34.8627 33.8821 33.7943 34.4173C32.6653 34.9838 31.4939 35.4604 30.2909 35.8429C29.0066 36.252 27.6926 36.5601 26.3608 36.7645" fill="#00C0F3"/>
<path d="M26.3476 29.7058C26.9675 29.6442 27.597 29.2883 28.1921 28.6957C28.8629 27.989 29.4102 27.1733 29.8108 26.2832C30.3264 25.1738 30.7117 24.0077 30.9588 22.8086C31.5398 19.9971 31.5398 17.0954 30.9588 14.2839C30.7117 13.0848 30.3264 11.9187 29.8108 10.8093C29.4103 9.91916 28.863 9.10349 28.1921 8.39676C27.597 7.80228 26.9675 7.44636 26.3476 7.38672C27.3271 7.47934 28.2981 7.64721 29.2521 7.88885C30.1375 8.1118 31.0048 8.40185 31.8466 8.75653C32.6312 9.08787 33.3893 9.47958 34.1139 9.92818C34.7889 10.345 35.4288 10.8167 36.0273 11.3384C36.1766 11.8899 36.3079 12.4555 36.4215 13.0353C36.535 13.615 36.6307 14.205 36.7085 14.8052C36.785 15.4068 36.8431 16.0192 36.8826 16.6426C36.9221 17.2659 36.9419 17.8995 36.9419 18.5434C36.9419 19.1847 36.9221 19.8183 36.8826 20.4442C36.8431 21.0701 36.785 21.6832 36.7085 22.2834C36.6307 22.8849 36.535 23.4749 36.4215 24.0534C36.3079 24.6318 36.1766 25.1968 36.0273 25.7483C35.4291 26.271 34.7891 26.7433 34.1139 27.1605C33.3892 27.609 32.6312 28.0007 31.8466 28.3321C31.0036 28.6881 30.135 28.9794 29.2482 29.2036C28.2942 29.4453 27.3232 29.6132 26.3438 29.7058" fill="#A6CE39"/>
<path d="M14.7371 9.9395C15.245 8.38343 15.9436 6.89701 16.8169 5.51455C17.57 4.31471 18.5048 3.24043 19.5875 2.33052C20.5364 1.53168 21.6335 0.930069 22.8153 0.560538C23.9426 0.215291 25.1322 0.127219 26.2976 0.302736C27.4746 0.489423 28.6026 0.910662 29.6154 1.54172C30.6554 2.19679 31.586 3.01296 32.3726 3.96005C33.2221 4.98148 33.9449 6.10301 34.5251 7.29992C35.1586 8.59331 35.663 9.94665 36.031 11.3401C35.4324 10.8184 34.7925 10.3468 34.1176 9.92988C33.3917 9.48114 32.6323 9.08943 31.8464 8.75823C31.0046 8.4035 30.1373 8.11345 29.2519 7.89056C28.2978 7.64954 27.3268 7.48232 26.3474 7.39035C25.3239 7.29567 24.2947 7.27959 23.2688 7.34225C22.2518 7.40471 21.2412 7.54557 20.2457 7.76358C19.2674 7.97846 18.3077 8.27117 17.3756 8.63895C16.464 8.99726 15.585 9.43434 14.7485 9.94527" fill="#002561"/>
<path d="M26.3609 36.7777C25.188 36.9559 23.9905 36.8718 22.8537 36.5315C21.6636 36.1657 20.5579 35.5653 19.6009 34.7654C18.5152 33.8563 17.5778 32.782 16.8227 31.5813C15.9486 30.1991 15.2493 28.7126 14.741 27.1564C15.5776 27.6672 16.4565 28.1042 17.368 28.4627C18.3002 28.8304 19.2599 29.1231 20.2381 29.3381C21.2298 29.5561 22.2366 29.6976 23.2497 29.7613C24.2698 29.8249 25.2933 29.8101 26.3111 29.7171C27.2988 29.6236 28.2781 29.4551 29.2405 29.213C30.13 28.9865 31.0012 28.6926 31.8465 28.3338C32.6332 28.0029 33.3931 27.6112 34.1196 27.1621C34.7948 26.745 35.4348 26.2727 36.033 25.75C35.6649 27.1431 35.1612 28.4964 34.5291 29.7902C33.9489 30.9828 33.2281 32.101 32.3822 33.1204C31.6009 34.0657 30.6762 34.8811 29.6423 35.5368C28.6428 36.1684 27.5266 36.5905 26.3609 36.7777Z" fill="#002561"/>
<path d="M26.2977 29.7087C25.2799 29.8017 24.2564 29.8165 23.2363 29.7529C22.2232 29.6893 21.2164 29.5478 20.2247 29.3297C19.2465 29.1147 18.2868 28.822 17.3546 28.4543C16.4432 28.0958 15.5642 27.6587 14.7276 27.148C14.5158 26.5067 14.3245 25.8487 14.1536 25.1741C13.9826 24.4994 13.8436 23.7979 13.7365 23.0694C13.6229 22.3473 13.5362 21.6085 13.4762 20.853C13.4163 20.0976 13.3869 19.328 13.3882 18.5444C13.3882 17.7607 13.4176 16.9911 13.4762 16.2357C13.5349 15.4802 13.6217 14.7415 13.7365 14.0194C13.85 13.2986 13.989 12.597 14.1536 11.9146C14.3181 11.2323 14.5095 10.5743 14.7276 9.94073C15.5641 9.4299 16.4431 8.99283 17.3546 8.63441C18.2868 8.26672 19.2465 7.97401 20.2247 7.75904C22.215 7.31963 24.2606 7.18986 26.2901 7.37426C25.6644 7.31847 25.0139 7.56665 24.3863 8.06301C23.6523 8.69128 23.0494 9.45961 22.6126 10.3236C22.017 11.4585 21.5731 12.6676 21.2924 13.9193C20.605 16.9588 20.605 20.1146 21.2924 23.154C21.5733 24.4057 22.0172 25.6147 22.6126 26.7498C23.0496 27.6136 23.6524 28.3819 24.3863 29.0103C25.0139 29.5105 25.6644 29.7529 26.2901 29.6991" fill="#00C0F3"/>
<path d="M26.2986 36.7856C24.9055 36.9964 23.498 37.0968 22.0892 37.0857C20.6512 37.0755 19.2165 36.9468 17.7994 36.7009C16.3556 36.4504 14.9362 36.0738 13.5575 35.5755C12.152 35.0706 10.7976 34.4322 9.5126 33.6689C8.13992 32.8534 6.86271 31.8853 5.70499 30.7831C4.58432 29.7184 3.6014 28.5162 2.77945 27.2046C1.97432 25.9167 1.34917 24.5236 0.921562 23.0644C0.0658595 20.1117 0.0658595 16.9748 0.921562 14.0221C1.34912 12.5629 1.97428 11.1698 2.77945 9.88191C3.60114 8.56902 4.58406 7.36545 5.70499 6.29962C6.86281 5.19747 8.14001 4.22946 9.5126 3.41379C10.7951 2.65029 12.1469 2.01125 13.5498 1.50529C14.9287 1.00879 16.3481 0.634133 17.7918 0.385584C19.2114 0.139667 20.6487 0.010978 22.0892 0.000805497C23.498 -0.0101261 24.9054 0.0902248 26.2986 0.300932C25.1336 0.123742 23.944 0.209839 22.8163 0.552962C21.6345 0.922541 20.5374 1.52414 19.5884 2.32294C18.5064 3.23296 17.5722 4.30724 16.8198 5.50698C15.9465 6.88944 15.2478 8.37586 14.7399 9.93193C13.9309 10.4254 13.1721 10.9976 12.4745 11.6403C11.8079 12.2524 11.214 12.9399 10.7046 13.6893C10.2164 14.4079 9.82998 15.1914 9.5566 16.0172C9.01522 17.6573 9.01522 19.4293 9.5566 21.0693C9.82994 21.8951 10.2163 22.6786 10.7046 23.3972C11.214 24.1466 11.8079 24.8342 12.4745 25.4462C13.1724 26.0863 13.9312 26.656 14.7399 27.1469C15.248 28.7029 15.9467 30.1893 16.8198 31.5719C17.5726 32.7719 18.5074 33.8462 19.5903 34.7559C20.5391 35.5549 21.6363 36.1566 22.8182 36.5259C23.9447 36.8716 25.1337 36.9603 26.2986 36.7856Z" fill="#A6CE39"/>
<path d="M57.9182 37.1306H57.3805V34.7489H57.3652L56.3989 37.1037H55.9933L55.027 34.7489H55.0117V37.1306H54.4722V33.7734H55.1648L56.1865 36.3072H56.2057L57.2274 33.7734H57.9182V37.1306Z" fill="#002561"/>
<path d="M55.2795 42.2349H56.2362L55.7636 40.8016H55.7464L55.2795 42.2349ZM56.3702 42.6985H55.1418L54.8567 43.5662H54.2329L55.4249 40.2109H56.0985L57.2828 43.5681H56.6533L56.3702 42.6985Z" fill="#002561"/>
<path d="M55.6526 49.5092C56.0735 49.5092 56.3165 49.3168 56.3165 48.9628C56.3165 48.6088 56.0735 48.4126 55.6507 48.4126H55.0767V49.5092H55.6526ZM55.8037 50.0017H54.4893V46.6445H56.6112V47.1486H55.0805V47.9335H55.7789C56.4524 47.9335 56.9269 48.3491 56.9269 48.9628C56.9269 49.5765 56.4658 50.0036 55.8018 50.0036" fill="#002561"/>
<path d="M61.0999 37.1306H58.9377V33.7734H61.0999V34.2813H59.5347V35.1875H61.0138V35.6646H59.5347V36.6246H61.0999V37.1306Z" fill="#002561"/>
<path d="M66.3676 37.1306H65.6195L64.3681 35.5992H64.3509V37.1306H63.7673V35.5992H63.7482L62.4873 37.1306H61.7583L63.1952 35.378L61.8578 33.7734H62.5524L63.7482 35.2414H63.7673V33.7734H64.3509V35.2414H64.3681L65.5678 33.7734H66.2509L64.9192 35.3722L66.3676 37.1306Z" fill="#002561"/>
<path d="M67.7278 36.6054V36.6246H69.1858V34.2775H68.0493L67.9536 35.7858C67.9287 36.1706 67.8828 36.4207 67.7278 36.6054ZM67.3681 37.7944H66.8247V36.6246H67.0639C67.2992 36.4765 67.3758 36.1995 67.4025 35.7493L67.5231 33.7734H69.7828V36.6246H70.1999V37.7944H69.6546V37.1326H67.3585L67.3681 37.7944Z" fill="#002561"/>
<path d="M71.1681 37.1307V36.6305C71.231 36.6437 71.2951 36.6501 71.3594 36.6497C71.4611 36.6562 71.5626 36.6327 71.6513 36.5822C71.74 36.5316 71.8121 36.4561 71.8588 36.365L70.7375 33.7773H71.369L72.1649 35.7551H72.184L72.9494 33.7773H73.577L72.561 36.1687C72.2606 36.8748 71.9755 37.1576 71.413 37.1576C71.3276 37.1594 71.2425 37.1484 71.1604 37.1249" fill="#002561"/>
<path d="M76.5427 37.1306V35.6742H74.9183V37.1306H74.3213V33.7734H74.9183V35.1702H76.5427V33.7734H77.1378V37.1306H76.5427Z" fill="#002561"/>
<path d="M78.9632 35.7993H79.9198L79.4549 34.366H79.4396L78.9632 35.7993ZM80.0538 36.263H78.8254L78.5326 37.1326H77.9185L79.1067 33.7734H79.7802L80.9684 37.1326H80.3389L80.0538 36.263Z" fill="#002561"/>
<path d="M82.3191 35.5392H82.9085C83.3371 35.5392 83.5839 35.3064 83.5839 34.8985C83.5839 34.4906 83.339 34.2655 82.9104 34.2655H82.3172L82.3191 35.5392ZM83.0692 33.775C83.2183 33.767 83.3674 33.7905 83.5068 33.8441C83.6463 33.8977 83.7731 33.98 83.8789 34.0859C83.9848 34.1918 84.0673 34.3188 84.1213 34.4588C84.1753 34.5988 84.1995 34.7486 84.1923 34.8985C84.198 35.0502 84.1719 35.2015 84.1158 35.3424C84.0597 35.4834 83.9748 35.6109 83.8666 35.7168C83.7584 35.8227 83.6293 35.9046 83.4877 35.9572C83.346 36.0098 83.195 36.0319 83.0443 36.0221H82.3191V37.1341H81.7222V33.775H83.0692Z" fill="#002561"/>
<path d="M85.5393 35.4542C85.5393 36.2006 85.922 36.6758 86.5132 36.6758C87.1045 36.6758 87.4871 36.2006 87.4871 35.4542C87.4871 34.7077 87.1045 34.2306 86.5132 34.2306C85.922 34.2306 85.5393 34.7058 85.5393 35.4542ZM88.0975 35.4542C88.0975 36.5219 87.4872 37.1857 86.5152 37.1857C85.5432 37.1857 84.929 36.52 84.929 35.4542C84.929 34.3883 85.5393 33.7227 86.5152 33.7227C87.491 33.7227 88.0975 34.3902 88.0975 35.4542Z" fill="#002561"/>
<path d="M89.6302 36.6054V36.6246H91.0882V34.2775H89.9516L89.8559 35.7858C89.8311 36.1706 89.7851 36.4207 89.6302 36.6054ZM89.2704 37.7944H88.7271V36.6246H88.9662C89.2016 36.4765 89.2781 36.1995 89.3049 35.7493L89.4254 33.7734H91.6851V36.6246H92.1022V37.7944H91.5608V37.1326H89.2647L89.2704 37.7944Z" fill="#002561"/>
<path d="M95.0967 37.1306V35.6742H93.4722V37.1306H92.8752V33.7734H93.4722V35.1702H95.0967V33.7734H95.6917V37.1306H95.0967Z" fill="#002561"/>
<path d="M97.5172 35.7993H98.4739L98.0089 34.366H97.9917L97.5172 35.7993ZM98.6078 36.263H97.3794L97.0924 37.1326H96.4763L97.6664 33.7734H98.3399L99.5224 37.1326H98.8929L98.6078 36.263Z" fill="#002561"/>
<path d="M102.149 34.2603H101.512C101.103 34.2603 100.86 34.4739 100.86 34.8375C100.86 35.2011 101.101 35.4146 101.512 35.4146H102.149V34.2603ZM100.758 37.1307H100.087L100.994 35.809C100.78 35.7562 100.591 35.6324 100.456 35.4579C100.321 35.2833 100.249 35.0681 100.251 34.8471C100.251 34.2141 100.709 33.7812 101.411 33.7812H102.75V37.1307H102.157V35.8898H101.606L100.758 37.1307Z" fill="#002561"/>
<path d="M57.8068 41.8856C57.8068 40.8159 58.4115 40.1406 59.3605 40.1406C60.1125 40.1406 60.6999 40.6081 60.7898 41.295H60.1966C60.15 41.1088 60.0414 40.9444 59.889 40.8289C59.7365 40.7134 59.5494 40.6538 59.3586 40.6601C58.7846 40.6601 58.4134 41.1353 58.4134 41.8837C58.4134 42.6321 58.7788 43.1092 59.3605 43.1092C59.5447 43.1233 59.7281 43.0738 59.8805 42.9688C60.0329 42.8639 60.1451 42.7098 60.1986 42.532H60.7917C60.6616 43.2208 60.1278 43.6402 59.3586 43.6402C58.4019 43.6402 57.8049 42.9707 57.8049 41.8933" fill="#002561"/>
<path d="M61.5322 41.8856C61.5322 40.8159 62.1369 40.1406 63.0859 40.1406C63.8379 40.1406 64.4253 40.6081 64.5152 41.295H63.922C63.8754 41.1088 63.7668 40.9444 63.6144 40.8289C63.4619 40.7134 63.2748 40.6538 63.084 40.6601C62.51 40.6601 62.1407 41.1353 62.1407 41.8837C62.1407 42.6321 62.5061 43.1092 63.0878 43.1092C63.272 43.1233 63.4554 43.0738 63.6078 42.9688C63.7602 42.8639 63.8724 42.7098 63.9259 42.532H64.519C64.3889 43.2208 63.8551 43.6402 63.0859 43.6402C62.1292 43.6402 61.5322 42.9707 61.5322 41.8933" fill="#002561"/>
<path d="M65.8662 41.8877C65.8662 42.6342 66.2489 43.1094 66.8401 43.1094C67.4314 43.1094 67.814 42.6342 67.814 41.8877C67.814 41.1413 67.4314 40.6642 66.8401 40.6642C66.2489 40.6642 65.8662 41.1394 65.8662 41.8877ZM68.4244 41.8877C68.4244 42.9555 67.814 43.6192 66.842 43.6192C65.8701 43.6192 65.2559 42.9536 65.2559 41.8877C65.2559 40.8219 65.8662 40.1562 66.842 40.1562C67.8179 40.1562 68.4244 40.8238 68.4244 41.8877Z" fill="#002561"/>
<path d="M71.9737 44.228V43.5642H69.3218V40.207H69.9188V43.0602H71.503V40.207H72.0981V43.0602H72.5152V44.228H71.9737Z" fill="#002561"/>
<path d="M75.542 41.1497H75.5114L73.8889 43.5642H73.311V40.207H73.9042V42.6292H73.9348L75.5554 40.207H76.1333V43.5642H75.542V41.1497Z" fill="#002561"/>
<path d="M77.9471 42.2349H78.9038L78.4389 40.8016H78.4217L77.9471 42.2349ZM79.0378 42.6985H77.8094L77.5243 43.5662H76.9062L78.0925 40.2109H78.7661L79.9504 43.5681H79.3209L79.0378 42.6985Z" fill="#002561"/>
<path d="M83.3734 44.228V43.5642H80.7214V40.207H81.3184V43.0602H82.9046V40.207H83.4977V43.0602H83.9148V44.228H83.3734Z" fill="#002561"/>
<path d="M86.9419 41.1497H86.9132L85.2888 43.5642H84.7109V40.207H85.306V42.6292H85.3366L86.9553 40.207H87.5351V43.5642H86.9419V41.1497Z" fill="#002561"/>
<path d="M90.411 40.6958H89.7739C89.3644 40.6958 89.1214 40.9094 89.1214 41.273C89.1214 41.6366 89.3625 41.8502 89.7739 41.8502H90.411V40.6958ZM89.02 43.5643H88.3484L89.2553 42.2426C89.0421 42.1895 88.8529 42.0656 88.7182 41.8911C88.5835 41.7166 88.5112 41.5016 88.5129 41.2807C88.5129 40.6477 88.9722 40.2148 89.6724 40.2148H91.0118V43.572H90.4187V42.3254H89.86L89.02 43.5643Z" fill="#002561"/>
<path d="M60.0706 47.5872H60.04L58.4193 50.0017H57.8396V46.6445H58.4347V49.0667H58.4653L60.084 46.6445H60.6637V50.0017H60.0706V47.5872Z" fill="#002561"/>
<path d="M62.2688 48.4065H62.8582C63.2868 48.4065 63.5336 48.1737 63.5336 47.7658C63.5336 47.3579 63.2887 47.1328 62.8601 47.1328H62.2688V48.4065ZM63.0189 46.6423C63.1681 46.634 63.3173 46.6573 63.4569 46.7108C63.5965 46.7642 63.7234 46.8466 63.8293 46.9526C63.9352 47.0585 64.0178 47.1856 64.0716 47.3257C64.1255 47.4659 64.1495 47.6158 64.142 47.7658C64.1477 47.9175 64.1216 48.0687 64.0655 48.2097C64.0094 48.3507 63.9245 48.4782 63.8163 48.5841C63.7081 48.69 63.579 48.7719 63.4374 48.8245C63.2957 48.877 63.1447 48.8992 62.994 48.8894H62.2688V49.9994H61.6719V46.6423H63.0189Z" fill="#002561"/>
<path d="M69.1916 50.0017H68.4434L67.1921 48.4722H67.1749V50.0017H66.5913V48.4722H66.5722L65.3113 50.0017H64.5823L66.0192 48.251L64.6818 46.6445H65.3763L66.5722 48.1125H66.5913V46.6445H67.1749V48.1125H67.1921L68.3918 46.6445H69.0729L67.7432 48.2433L69.1916 50.0017Z" fill="#002561"/>
<path d="M54.2405 25.8667V9.125H57.2636L62.5598 21.8419H62.7569L68.0646 9.125H71.0877V25.8667H68.6864V13.777H68.5257L63.6447 25.3799H61.6835L56.8025 13.777H56.6398V25.8667H54.2405Z" fill="#002561"/>
<path d="M78.942 19.2409H83.9723L81.5614 12.1667H81.3701L78.942 19.2409ZM84.6305 21.4226H78.2838L76.7531 25.8667H74.0955L80.1073 9.12891H82.8874L88.8992 25.8667H86.1535L84.6305 21.4226Z" fill="#002561"/>
<path d="M97.5861 23.5465C99.8133 23.5465 101.084 22.55 101.084 20.7165C101.084 18.883 99.8018 17.8749 97.5766 17.8749H94.4961V23.5485L97.5861 23.5465ZM98.2405 25.8668H91.9092V9.12891H102.109V11.4953H94.4941V15.6105H98.1869C101.44 15.6105 103.724 17.6883 103.724 20.728C103.724 23.7678 101.474 25.8668 98.2405 25.8668Z" fill="#002561"/>
</g>
<defs>
<clipPath id="clip0_3467_32499">
<rect width="103.448" height="50" fill="white" transform="translate(0.275879)"/>
</clipPath>
</defs>
</svg>
